<?xml version="1.0" standalone="no"?>
<!DOCTYPE svg PUBLIC "-//W3C//DTD SVG 20010904//EN"
 "http://www.w3.org/TR/2001/REC-SVG-20010904/DTD/svg10.dtd">
<svg version="1.0" xmlns="http://www.w3.org/2000/svg"
 width="218.000000pt" height="76.000000pt" viewBox="0 0 218.000000 76.000000"
 preserveAspectRatio="xMidYMid meet">

<g transform="translate(0.000000,76.000000) scale(0.100000,-0.100000)"
fill="#000000" stroke="none">
<path d="M267 710 c-94 -24 -176 -90 -224 -182 -25 -48 -28 -62 -28 -158 0
-93 3 -112 26 -161 36 -76 90 -133 157 -166 76 -37 193 -39 260 -5 l42 22 0
155 0 155 -45 0 -45 0 0 -130 0 -129 -38 -11 c-125 -33 -272 111 -272 269 0
150 128 273 269 258 25 -2 54 -8 64 -12 15 -6 17 -1 17 38 0 25 -5 49 -11 53
-19 11 -132 14 -172 4z"/>
<path d="M1100 365 l0 -345 40 0 40 0 0 106 0 107 41 -6 c69 -9 110 -61 124
-160 l7 -47 41 0 40 0 -7 66 c-9 87 -39 149 -88 181 -21 14 -38 28 -38 30 0 3
29 45 65 94 l66 89 -53 0 -53 0 -60 -86 c-33 -47 -66 -90 -72 -96 -10 -8 -13
33 -13 201 l0 211 -40 0 -40 0 0 -345z"/>
<path d="M610 611 c-15 -30 -12 -56 10 -76 32 -29 74 -10 78 33 2 18 -2 40 -9
48 -17 21 -66 18 -79 -5z"/>
<path d="M820 535 c0 -48 -2 -55 -20 -55 -17 0 -20 -7 -20 -40 0 -33 3 -40 20
-40 19 0 20 -7 20 -112 1 -160 23 -211 105 -249 65 -30 75 -26 75 27 0 41 -3
46 -30 56 -47 16 -63 58 -68 176 l-4 102 51 0 51 0 0 40 0 40 -50 0 -50 0 0
55 0 55 -40 0 -40 0 0 -55z"/>
<path d="M2000 535 c0 -48 -2 -55 -20 -55 -17 0 -20 -7 -20 -40 0 -33 3 -40
20 -40 19 0 20 -7 20 -112 1 -160 23 -211 105 -249 65 -30 75 -26 75 27 0 41
-3 46 -30 56 -47 16 -63 58 -68 176 l-4 102 51 0 51 0 0 40 0 40 -50 0 -50 0
0 55 0 55 -40 0 -40 0 0 -55z"/>
<path d="M610 250 l0 -230 40 0 40 0 0 230 0 230 -40 0 -40 0 0 -230z"/>
<path d="M1500 333 c0 -160 8 -213 37 -252 35 -47 68 -63 134 -68 82 -6 143
22 176 82 21 37 23 53 23 213 l0 172 -39 0 -40 0 -3 -161 -3 -161 -34 -30
c-29 -26 -39 -30 -74 -25 -80 11 -96 54 -97 250 l0 127 -40 0 -40 0 0 -147z"/>
</g>
</svg>
